<svg version="1.1" width="482" height="361" viewBox="1 -1 482 361" xmlns="http://www.w3.org/2000/svg" xmlns:xlink="http://www.w3.org/1999/xlink">
  <!-- Exported by Scratch - http://scratch.mit.edu/ -->
  <path id="ID0.25325512140989304" fill="#FCFEFF" stroke="#E7E9EA" stroke-width="0.2935064935064935" d="M 0 0 L 480 0 L 480 360 L 0 360 L 0 0 Z " transform="matrix(1, 0, 0, 1, 1, -1)"/>
  <path id="ID0.25948325963690877" fill="#1505FF" stroke="#1505FF" stroke-width="2" d="M 80 0 L 151 0 L 151 301 L 80 301 L 80 0 Z " transform="matrix(1, 0, 0, 0.9537953734397888, 0, 0)"/>
  <path id="ID0.015177982859313488" fill="#1505FF" stroke="#1505FF" stroke-width="2" d="M 238 199 L 293 199 L 293 360 L 238 360 L 238 199 Z " transform="matrix(3.0526316165924072, 0, 0, 0.89570552110672, -485.45, 37.65)"/>
  <path id="ID0.4282406670972705" fill="#1505FF" stroke="#1505FF" stroke-width="2" d="M 229 0 L 284 0 L 284 164 L 229 164 L 229 0 Z " transform="matrix(1, 0, 0, 0.8313252925872803, 8, -0.15)"/>
  <path id="ID0.2746642888523638" fill="#1505FF" stroke="#1505FF" stroke-width="2" d="M 365 63 L 407 63 L 407 212 L 365 212 L 365 63 Z " transform="matrix(1.1136363744735718, 0, 0, 1.0132449865341187, -43.35, -0.8)"/>
</svg>